HIERARCHY
ROOT root
{
	OFFSET	0	13.1	24.9
	CHANNELS 6  Xposition Yposition Zposition Xrotation Yrotation Zrotation
	JOINT spine_1
	{
		OFFSET	0	9.99999	0
		CHANNELS 3  Xrotation Yrotation Zrotation
		JOINT spine_2
		{
			OFFSET	0	112	-10
			CHANNELS 3  Xrotation Yrotation Zrotation
			JOINT spine_3
			{
				OFFSET	0	206.5	19.3
				CHANNELS 3  Xrotation Yrotation Zrotation
				JOINT spine_4
				{
					OFFSET	0	110.4	14.6
					CHANNELS 3  Xrotation Yrotation Zrotation
					JOINT neck_1
					{
						OFFSET	0	71.8	-50.3
						CHANNELS 3  Xrotation Yrotation Zrotation
						JOINT neck_2
						{
							OFFSET	0	86.2	-25.8
							CHANNELS 3  Xrotation Yrotation Zrotation
							JOINT head_ee
							{
								OFFSET	0	179.8	-8.7
								CHANNELS 3  Xrotation Yrotation Zrotation
								End Site
								{
									OFFSET	1	0	0
								}
							}
						}
					}
					JOINT left_clavicle
					{
						OFFSET	-43.2	22.4	-70.8
						CHANNELS 3  Xrotation Yrotation Zrotation
						JOINT left_shoulder
						{
							OFFSET	-93.9	-5.79999	48.7
							CHANNELS 3  Xrotation Yrotation Zrotation
							JOINT left_elbow
							{
								OFFSET	-291.4	-30.8	15.2
								CHANNELS 3  Xrotation Yrotation Zrotation
								JOINT left_lowarm_twist
								{
									OFFSET	-110.7	-3.89999	13.6
									CHANNELS 3  Xrotation Yrotation Zrotation
									JOINT left_hand
									{
										OFFSET	-110.7	-3.89999	13.6
										CHANNELS 3  Xrotation Yrotation Zrotation
										JOINT left_ee
										{
											OFFSET	-80.8	-5.10001	12.1
											CHANNELS 3  Xrotation Yrotation Zrotation
											End Site
											{
												OFFSET	1	0	0
											}
										}
									}
								}
							}
						}
					}
					JOINT right_clavicle
					{
						OFFSET	43.2	22.4	-70.8
						CHANNELS 3  Xrotation Yrotation Zrotation
						JOINT right_shoulder
						{
							OFFSET	93.9	-5.79999	48.7
							CHANNELS 3  Xrotation Yrotation Zrotation
							JOINT right_elbow
							{
								OFFSET	291.4	-30.8	15.2
								CHANNELS 3  Xrotation Yrotation Zrotation
								JOINT right_lowarm_twist
								{
									OFFSET	110.7	-3.89999	13.6
									CHANNELS 3  Xrotation Yrotation Zrotation
									JOINT right_hand
									{
										OFFSET	110.7	-3.89999	13.6
										CHANNELS 3  Xrotation Yrotation Zrotation
										JOINT right_ee
										{
											OFFSET	80.8	-5.10001	12.1
											CHANNELS 3  Xrotation Yrotation Zrotation
											End Site
											{
												OFFSET	1	0	0
											}
										}
									}
								}
							}
						}
					}
				}
			}
		}
	}
	JOINT left_hip
	{
		OFFSET	-82.8	-127.5	0.300001
		CHANNELS 3  Xrotation Yrotation Zrotation
		JOINT left_knee
		{
			OFFSET	-28.2	-396.7	2.2
			CHANNELS 3  Xrotation Yrotation Zrotation
			JOINT left_ankle
			{
				OFFSET	-11.7	-411.3	35.4
				CHANNELS 3  Xrotation Yrotation Zrotation
				JOINT left_toes
				{
					OFFSET	0	-60	-88.6
					CHANNELS 3  Xrotation Yrotation Zrotation
					JOINT left_foot_ee
					{
						OFFSET	-22.5	-16.5	-42.2
						CHANNELS 3  Xrotation Yrotation Zrotation
						End Site
						{
							OFFSET	1	0	0
						}
					}
				}
			}
		}
	}
	JOINT right_hip
	{
		OFFSET	82.8	-127.5	0.300001
		CHANNELS 3  Xrotation Yrotation Zrotation
		JOINT right_knee
		{
			OFFSET	28.2	-396.7	2.2
			CHANNELS 3  Xrotation Yrotation Zrotation
			JOINT right_ankle
			{
				OFFSET	11.7	-411.3	35.4
				CHANNELS 3  Xrotation Yrotation Zrotation
				JOINT right_toes
				{
					OFFSET	0	-60	-88.6
					CHANNELS 3  Xrotation Yrotation Zrotation
					JOINT right_foot_ee
					{
						OFFSET	22.5	-16.5	-42.2
						CHANNELS 3  Xrotation Yrotation Zrotation
						End Site
						{
							OFFSET	1	0	0
						}
					}
				}
			}
		}
	}
}
MOTION
Frames: 15
Frame Time: 0.02
3669.6 736.688 -1409.93 -18.4308 77.8248 17.9236 1.95575 0.343193 1.19193 1.9565 0.266658 1.21135 1.96218 0.0485985 1.2394 1.96012 0.243713 1.21617 0.744643 2.2692 -8.84324 1.13975 11.3364 -9.43458 -0.0 0.0 -0.0 0.204442 9.45439 1.47521 -5.26565 -27.8643 67.9922 1.4292 -35.2957 0.454703 25.9222 0.174286 -3.27864 3.97938 15.5589 32.9658 -0.0 0.0 -0.0 2.6043 0.000816248 -5.01767 -20.5707 13.186 -71.0022 1.26944 32.1621 -0.365965 -4.70271 0.189245 -0.570399 3.79105 1.24331 -25.7579 0.0 0.0 0.0 -2.6978 13.4316 2.0551 -1.71524 0.0668149 0.25474 19.2928 2.34373 -2.65207 -8.50882 0.0 0.0 -0.0 0.0 -0.0 1.9947 4.1967 -2.66306 -9.85412 -0.278616 -1.48477 24.7874 -10.1327 3.31203 -11.0608 0.0 0.0 0.0 0.0 0.0 
3665.44 734.094 -1412.72 -19.3607 77.7784 19.2749 2.06263 0.238873 1.07931 2.06327 0.169714 1.09232 2.0665 -0.0238134 1.10517 2.06483 0.151016 1.09506 1.90184 1.95995 -9.23716 2.33934 11.2113 -10.0646 -0.0 0.0 -0.0 -1.02584 11.1069 -0.428631 -4.60117 -28.2697 69.7832 1.57843 -38.0193 0.543823 25.8611 0.175626 -3.27095 3.79001 13.5871 31.0031 -0.0 0.0 -0.0 2.16696 -0.0536131 -4.17882 -19.7398 13.7222 -70.8622 1.25899 31.9491 -0.360419 -2.93546 0.112633 -0.35786 4.06775 2.0748 -27.4887 0.0 0.0 0.0 -2.58859 12.5542 1.48563 -2.18576 0.0838056 0.324952 19.9789 2.3059 -2.73772 -7.47139 0.0 0.0 -0.0 0.0 -0.0 1.98588 4.58481 -3.06275 -10.5835 -0.289024 -1.5962 24.771 -12.074 3.31877 -10.6188 0.0 0.0 0.0 0.0 0.0 
3662.64 730.762 -1418.45 -16.3318 78.0036 16.1501 1.93719 0.303507 0.962416 1.93767 0.241654 0.979776 1.94184 0.0645115 1.00707 1.9405 0.222742 0.984247 0.743614 3.80367 -9.97737 1.31836 14.9818 -10.5643 -0.0 0.0 -0.0 -1.9812 11.7721 -1.94637 -3.61372 -29.6992 71.1675 1.65909 -39.4123 0.594277 26.184 0.16845 -3.31157 3.62944 11.4386 29.1699 -0.0 0.0 -0.0 2.2982 0.280565 -4.40524 -19.209 14.4659 -70.8341 1.15301 29.7326 -0.306077 -1.98286 0.0740712 -0.242359 4.42683 3.09084 -29.8 0.0 0.0 0.0 -2.64818 11.8284 1.6191 -5.40468 0.184493 0.808634 23.1611 3.65631 -3.11953 -2.72618 0.0 0.0 -0.0 0.0 -0.0 1.48083 4.77386 -3.45107 -11.8439 -0.30366 -1.78903 28.659 -13.6714 3.7742 -9.74271 0.0 0.0 0.0 0.0 0.0 
3657.05 725.382 -1424.49 -11.7946 77.3309 11.7101 1.85185 0.36132 0.919862 1.85228 0.302058 0.940987 1.8573 0.129388 0.97977 1.85608 0.282494 0.947044 0.428571 4.06926 -8.53512 0.878849 14.2436 -8.89268 -0.0 0.0 -0.0 -3.04825 13.2203 -3.47681 -3.6568 -31.4893 71.9446 1.7535 -40.9749 0.655212 26.4442 0.162498 -3.34428 3.48767 9.33594 27.4528 -0.0 0.0 -0.0 2.27326 -0.867613 -4.44772 -17.8574 15.1677 -70.7729 1.049 27.4578 -0.256287 -1.25343 0.0458465 -0.153497 4.56783 3.75254 -30.6006 0.0 0.0 0.0 -2.60345 10.0771 0.786391 -9.1428 0.267101 1.37623 24.0066 2.25019 -3.22466 0.652759 -0.0 -0.0 -0.0 0.0 -0.0 0.30666 5.00173 -3.37899 -12.41 -0.308853 -1.87574 32.1798 -13.3549 4.15147 -8.82581 0.0 0.0 0.0 0.0 0.0 
3654.64 723.793 -1426.52 -9.69042 77.1185 9.32569 1.72812 0.37903 0.927474 1.72855 0.319247 0.949711 1.73393 0.142613 0.991727 1.73268 0.297441 0.956764 -0.818288 4.79946 -7.41311 -0.456483 14.5757 -7.40002 -0.0 0.0 -0.0 -3.72567 13.0453 -4.64279 -3.55642 -31.2753 72.8121 1.82642 -42.1333 0.703587 27.2019 0.144327 -3.43936 3.40225 7.85745 26.3296 -0.0 0.0 -0.0 2.52917 0.673261 -4.82201 -16.9742 15.1927 -70.6025 1.00911 26.5591 -0.238169 0.724383 -0.0249591 0.089148 4.79045 4.57538 -31.9741 0.0 0.0 0.0 -2.61701 9.55626 1.1718 -10.6943 0.29048 1.61314 25.0452 3.41934 -3.34124 2.63105 -0.0 -0.0 -0.0 0.0 -0.0 -1.21634 5.09271 -3.09781 -10.1287 -0.2827 -1.5267 33.4501 -13.4301 4.28364 -9.60273 0.0 0.0 0.0 0.0 0.0 
3651.72 723.12 -1423.44 -7.43447 77.6973 6.97826 1.72747 0.219908 0.913068 1.72792 0.161364 0.925209 1.73057 -0.00833332 0.939137 1.72937 0.140084 0.928669 -1.74597 4.94463 -8.08218 -1.35835 15.3332 -7.95729 -0.0 0.0 -0.0 -3.65758 13.7984 -4.37163 -4.15513 -32.4909 73.0218 1.74604 -40.8542 0.650331 27.2773 0.142449 -3.44881 2.97446 6.87356 22.8989 -0.0 0.0 -0.0 1.93033 3.50629 -3.41265 -15.5947 15.7194 -72.28 0.975862 25.7993 -0.223501 2.37676 -0.0776579 0.293616 5.31968 5.44002 -35.8483 0.0 0.0 0.0 -1.62655 15.6362 1.05962 -13.6589 0.317278 2.06718 26.3923 4.04726 -3.49362 4.15574 -0.0 -0.0 -0.0 0.0 -0.0 -5.2196 11.9303 -1.09814 -4.05315 -0.145532 -0.604882 31.7674 -7.83369 4.07626 -13.1712 0.0 0.0 0.0 0.0 0.0 
3643.98 722.216 -1423.92 -3.41234 77.1981 2.38866 1.62564 0.408456 0.941603 1.62606 0.347715 0.965683 1.63204 0.165935 1.01287 1.63076 0.323809 0.973958 -2.46049 5.70219 -6.32892 -2.18304 15.2922 -5.88036 -0.0 0.0 -0.0 -4.19757 15.2731 -4.93609 -4.55658 -32.0211 73.3531 1.79579 -41.6518 0.683134 27.5055 0.136691 -3.4774 3.0322 5.65758 22.8765 -0.0 0.0 -0.0 2.70024 2.45167 -5.02159 -15.3594 15.4216 -69.8369 0.875775 23.4525 -0.181786 3.47639 -0.109448 0.430479 5.34784 4.86654 -36.3726 0.0 0.0 0.0 -1.86814 9.25591 1.23723 -16.4318 0.321057 2.49256 25.7927 5.29628 -3.42288 7.01483 -0.0 -0.0 -0.0 0.0 -0.0 -6.38679 11.6283 -0.777178 -6.27315 -0.206987 -0.940014 34.3486 -9.85704 4.34638 -12.2915 0.0 0.0 0.0 0.0 0.0 
3644.91 718.704 -1431.69 -0.776291 77.2686 0.110364 1.4586 0.254237 0.940851 1.45907 0.193856 0.95512 1.4624 0.0136673 0.974497 1.46111 0.167392 0.960111 -3.784 5.70357 -7.77604 -3.46085 16.3735 -7.1937 -0.0 0.0 -0.0 -4.49299 14.8802 -5.5076 -4.99226 -33.5029 73.1322 1.74084 -40.7695 0.646927 27.3336 0.141041 -3.45586 2.93957 5.0406 21.99 -0.0 0.0 -0.0 2.86789 3.03346 -5.30906 -14.3201 15.759 -69.888 0.907075 24.1959 -0.19443 4.5625 -0.138261 0.566225 5.56047 5.51047 -37.8377 0.0 0.0 0.0 -1.83311 8.52381 0.313567 -17.208 0.318428 2.61162 27.1608 6.22865 -3.57709 8.37566 -0.0 -0.0 -0.0 0.0 -0.0 -7.42297 13.2235 -2.91873 -4.96094 -0.172232 -0.741639 38.578 -8.60249 4.74115 -11.3872 0.0 0.0 0.0 0.0 0.0 
3638.08 718.821 -1435.19 0.498357 77.8707 -0.40728 1.33438 0.0728204 0.725345 1.33468 0.0265185 0.728509 1.33505 -0.110436 0.720578 1.33433 0.0047492 0.728976 -0.945247 5.23067 -8.32957 -0.498105 16.0786 -8.32789 -0.0 0.0 -0.0 -5.11858 16.9532 -6.01227 -6.77581 -34.36 72.7645 1.81065 -41.8863 0.69303 26.9115 0.15144 -3.40295 2.9722 5.54935 22.4084 -0.0 0.0 -0.0 3.17282 3.20429 -5.90111 -14.8732 15.9168 -68.6071 0.819831 22.1029 -0.160126 5.39665 -0.158639 0.670831 5.38671 5.23142 -36.5134 0.0 0.0 0.0 0.106755 8.6467 -1.28505 -19.8884 0.29695 3.02229 27.7191 7.1058 -3.63967 9.10625 -0.0 -0.0 -0.0 0.0 -0.0 -8.36291 13.7435 -4.12587 -4.77442 -0.166923 -0.713507 36.5721 -10.3582 4.56559 -12.0463 0.0 0.0 0.0 0.0 0.0 
3635.11 717.415 -1441.41 0.429675 77.9457 0.332804 1.23582 0.0760036 0.627675 1.23603 0.0359098 0.631239 1.23647 -0.0840639 0.626647 1.23592 0.0159563 0.632059 -2.14971 5.5593 -8.30451 -1.73427 16.5965 -8.05411 -0.0 0.0 -0.0 -5.37995 16.1862 -6.62783 -7.966 -34.3199 72.4108 1.71358 -40.3231 0.629212 27.0062 0.14914 -3.41483 2.85236 4.46086 21.1559 -0.0 0.0 -0.0 3.59663 3.54861 -6.72065 -13.5532 15.9769 -68.7094 0.827619 22.2924 -0.163068 5.57835 -0.162875 0.693655 5.68923 5.90027 -38.7351 0.0 0.0 0.0 -0.0614687 8.64367 -2.1297 -19.0249 0.305966 2.89011 29.5427 8.45736 -3.84197 9.40989 -0.0 -0.0 -0.0 0.0 -0.0 -9.22573 15.8887 -4.44804 -2.32479 -0.0887155 -0.345723 38.8339 -8.07167 4.76174 -10.7983 0.0 0.0 0.0 0.0 0.0 
3613.27 711.757 -1443.56 17.2304 80.4869 -16.6816 0.630837 -0.120566 0.646203 0.631055 -0.16144 0.637222 0.629276 -0.285289 0.592222 0.628836 -0.18818 0.629843 0.20051 3.26737 -7.43609 0.523066 11.9094 -7.72483 -0.0 0.0 -0.0 -5.71109 16.8782 -6.97652 -9.69848 -35.1984 72.2611 1.75212 -40.9527 0.654311 27.7148 0.131311 -3.50359 2.74252 2.90308 19.7919 -0.0 0.0 -0.0 3.13758 3.70159 -5.79602 -7.17639 16.6359 -71.437 0.869195 23.2952 -0.179176 6.0972 -0.174574 0.758902 5.85302 5.74747 -40.2451 0.0 0.0 0.0 0.634213 10.3316 -2.90295 -18.9665 0.306505 2.88116 26.2947 8.15101 -3.4807 8.32059 -0.0 -0.0 -0.0 0.0 -0.0 -9.87148 16.4046 -4.81917 -11.1478 -0.296101 -1.68249 39.1131 -15.2196 4.8555 -9.56056 0.0 0.0 0.0 0.0 0.0 
3604.98 711.899 -1443.34 18.8188 79.9287 -18.7944 0.339383 0.267663 0.601007 0.339554 0.228878 0.61682 0.342147 0.0980202 0.650571 0.341613 0.199534 0.626927 1.34682 3.62025 -7.40365 1.70877 12.5563 -7.81816 -0.0 0.0 -0.0 -5.31822 16.6583 -6.40614 -11.3477 -32.828 71.8129 1.67773 -39.7266 0.606153 26.9517 0.150467 -3.40799 2.68502 3.90913 19.767 -0.0 0.0 -0.0 4.15348 3.19113 -7.85098 -2.25496 16.8942 -70.575 0.788058 21.3246 -0.148371 6.34377 -0.179927 0.789944 5.61946 5.0277 -38.5952 0.0 0.0 0.0 0.617374 8.57475 -2.17842 -19.8277 0.297649 3.013 24.6975 7.1822 -3.2957 8.367 -0.0 -0.0 -0.0 0.0 -0.0 -10.0996 15.6096 -4.95935 -13.3121 -0.315357 -2.01399 40.5684 -19.918 5.0788 -8.13229 0.0 0.0 0.0 0.0 0.0 
3596.9 704.91 -1447.89 22.0876 79.4713 -22.6309 0.106289 0.481713 0.710764 0.106464 0.43551 0.739974 0.112327 0.271887 0.814434 0.111621 0.397096 0.761278 3.37707 3.33676 -6.53554 3.70233 11.3914 -7.13801 -0.0 0.0 -0.0 -5.7041 17.0638 -6.91512 -12.6198 -35.056 70.8142 1.57039 -37.8776 0.538885 27.2007 0.144356 -3.43921 2.80813 4.0802 20.7005 -0.0 0.0 -0.0 4.31081 4.21247 -8.10946 0.451524 17.2209 -71.5857 0.831502 22.3867 -0.164544 7.05756 -0.194667 0.879933 5.89087 4.58713 -41.2109 0.0 0.0 0.0 2.63443 8.66383 -1.83066 -23.6839 0.233741 3.60116 28.8061 11.152 -3.77273 6.14922 -0.0 -0.0 -0.0 0.0 -0.0 -12.7388 15.9153 -4.25355 -13.0128 -0.313441 -1.96812 40.8291 -21.6636 5.14668 -8.6843 0.0 0.0 0.0 0.0 0.0 
3585.46 705.24 -1449.19 25.36 79.3661 -26.4187 -0.135041 0.671231 0.697197 -0.134988 0.625508 0.738495 -0.126649 0.454491 0.854439 -0.127192 0.583726 0.771944 2.99395 3.93687 -5.20026 3.25179 11.2895 -5.54664 -0.0 0.0 -0.0 -6.35139 18.2195 -7.61479 -12.732 -32.7431 70.9576 1.5381 -37.3023 0.519185 27.654 0.132885 -3.49598 2.77144 4.09426 20.4462 -0.0 0.0 -0.0 4.18385 4.53681 -7.83605 2.0465 17.439 -71.5826 0.849275 22.8166 -0.171375 7.55536 -0.204282 0.942794 5.98358 3.3363 -42.7212 0.0 0.0 0.0 4.20572 8.96576 -1.77465 -27.265 0.139066 4.1425 32.5617 13.5523 -4.19322 4.6872 -0.0 -0.0 -0.0 0.0 -0.0 -15.6532 15.802 -4.1383 -10.5001 -0.287906 -1.58346 42.5364 -23.3874 5.35153 -7.62568 0.0 0.0 0.0 0.0 0.0 
3577.25 709.98 -1452.26 22.2057 78.1159 -23.456 -0.361279 0.889704 0.749568 -0.361359 0.840206 0.804662 -0.349212 0.646535 0.967167 -0.349643 0.791162 0.85293 5.03629 3.88679 -5.38205 5.33847 11.3595 -5.99587 -0.0 0.0 -0.0 -6.51207 18.0602 -7.91495 -14.8146 -32.8129 71.2249 1.45636 -35.8059 0.470496 27.8677 0.127322 -3.52271 2.8109 4.0338 20.7028 -0.0 0.0 -0.0 4.50785 4.89068 -8.4693 4.52719 17.7348 -72.1937 0.875189 23.4386 -0.181554 7.6597 -0.206228 0.955981 6.08183 3.47165 -43.5558 0.0 0.0 0.0 5.9831 9.10986 -2.0282 -29.3018 0.0701738 4.44748 34.665 14.7074 -4.42098 3.72385 -0.0 -0.0 -0.0 0.0 -0.0 -15.9007 16.3004 -3.59714 -9.80936 -0.277931 -1.47794 41.6911 -23.8859 5.29076 -7.75889 0.0 0.0 0.0 0.0 0.0 
